<?xml version="1.0" encoding="utf-8"?>
<svg version="1.1" xmlns="http://www.w3.org/2000/svg" x="0px" y="0px"
	 viewBox="0 0 720 400" xml:space="preserve">
<style type="text/css">
	.gt-gray{fill:#9CA3AF;}
	.gt-green{fill:#33cc99;}
	.gt-text{font-family:'Russo One','Arial Black',sans-serif;font-size:52.6px;letter-spacing:21px;fill:#9CA3AF;}
</style>
<g>
	<g>
		<path class="gt-gray" d="M168.65,123.19H30.32v-20.43C30.57,60.47,63.7,30,107.68,30h221.5l-33.95,33.95l-102.07-0.01
			c-13.34-0.08-24.22,10.67-24.3,24.01L168.65,123.19z"/>
		<path class="gt-gray" d="M417.13,103.48l-0.01,103.57l-43.4,43.42v-62.59l-67.54,66.35c-12.53,12.38-29.14,19.15-46.76,19.04l-153.17,0
			c-42.31-0.25-76.2-35.41-75.94-77.72l0-43.84h138.46v24.8c0,14.4,10.22,24.28,23.56,24.36l74.46,0.44
			c5.44,0.03,10.55-2.06,14.41-5.88l55.53-55.15h-72.26l36.8-36.8H417.13z"/>
		<polygon class="gt-green" points="340.82,63.94 374.77,30 497.04,30 497.04,127.13 448.82,175.35 448.82,63.94"/>
		<path class="gt-gray" d="M678.27,63.94V30H523.78v243.12l56.02,0.33c18.82,0.11,35.57-15.12,35.68-33.94V63.94H678.27z"/>
		<polygon class="gt-green" points="497.04,171.15 448.82,219.37 448.82,273.27 497.04,273.27"/>
		<circle class="gt-green" cx="656.12" cy="253.27" r="21.07"/>
	</g>
	<text transform="matrix(1 0 0 1 36.5 370.6328)" class="gt-text">GROWTH TIME</text>
</g>
</svg>
